<svg width="375" height="207" viewBox="0 0 375 207" fill="none" xmlns="http://www.w3.org/2000/svg">
<path d="M281.968 124.899C246.085 107.927 210.467 93.0895 172.074 82.3915C127.285 69.9112 64.6165 51.251 23.0494 82.8916C11.7481 91.4941 5.79635 103.445 2.92108 116.897C1.90465 121.653 -2.60077 136.018 7.17178 134.15C28.6778 130.039 51.4293 116.667 69.9322 106.396C114.017 81.9227 154.145 50.8136 198.454 26.8823C237.279 5.91262 286.193 -10.3663 328.225 11.1296C355.501 25.0791 380.807 74.579 371.732 105.145C361.962 138.055 292.306 106.453 276.217 100.895C242.582 89.2755 192.14 73.795 166.448 109.396C146.985 136.367 149.195 174.456 149.195 205.912" stroke="url(#paint0_linear_3_126)" stroke-linecap="round"/>
<defs>
<linearGradient id="paint0_linear_3_126" x1="325.16" y1="1.23579" x2="-32.1749" y2="106.44" gradientUnits="userSpaceOnUse">
<stop stop-color="#BE8D9F"/>
<stop offset="1" stop-color="#ED4E87" stop-opacity="0"/>
</linearGradient>
</defs>
</svg>
