<svg width="37" height="64" viewBox="0 0 37 64" fill="none" xmlns="http://www.w3.org/2000/svg">
<path d="M1.02486 0.500618L0.525475 0.475762L0.475762 1.47453L0.975143 1.49938L1.02486 0.500618ZM25.6385 16.1277L26.1232 16.0052L25.6385 16.1277ZM23.7432 28.2426L23.3466 27.9381L23.7432 28.2426ZM17.3284 33.0822L17.2702 33.5788L17.3284 33.0822ZM18.4219 30.6143L18.081 30.2485L18.4219 30.6143ZM30.5953 29.0759L30.9048 28.6832L30.5953 29.0759ZM34.5316 48.8829L34.0696 48.6918L34.5316 48.8829ZM21.7528 63.3694C21.9568 63.5555 22.273 63.541 22.4591 63.337L25.4918 60.0124C25.6779 59.8084 25.6634 59.4921 25.4594 59.306C25.2554 59.1199 24.9391 59.1345 24.753 59.3385L22.0573 62.2936L19.1021 59.5979C18.8981 59.4118 18.5819 59.4263 18.3958 59.6303C18.2097 59.8344 18.2242 60.1506 18.4282 60.3367L21.7528 63.3694ZM0.975143 1.49938C6.83566 1.79109 12.2125 2.80508 16.4559 5.08263C20.679 7.34924 23.7951 10.874 25.1537 16.2502L26.1232 16.0052C24.6907 10.3366 21.3807 6.59091 16.9288 4.20152C12.4974 1.82307 6.95054 0.795567 1.02486 0.500618L0.975143 1.49938ZM25.1537 16.2502C26.2273 20.4983 26.1143 24.3342 23.3466 27.9381L24.1397 28.5471C27.1606 24.6136 27.24 20.4243 26.1232 16.0052L25.1537 16.2502ZM23.3466 27.9381C22.8862 28.5376 21.8698 29.7872 20.6984 30.8489C20.1122 31.3801 19.5019 31.8507 18.9154 32.1706C18.3213 32.4946 17.805 32.6346 17.3867 32.5856L17.2702 33.5788C17.9847 33.6625 18.7195 33.4165 19.3942 33.0485C20.0765 32.6764 20.7526 32.1493 21.3699 31.5898C22.6053 30.4702 23.6635 29.1672 24.1397 28.5471L23.3466 27.9381ZM17.3867 32.5856C17.3341 32.5794 17.3742 32.5717 17.4257 32.6264C17.482 32.6863 17.4825 32.746 17.4825 32.743C17.483 32.6993 17.5223 32.5538 17.6729 32.3015C17.9537 31.8309 18.4418 31.2791 18.7627 30.9801L18.081 30.2485C17.7128 30.5915 17.1566 31.2153 16.8142 31.789C16.6532 32.0588 16.4861 32.4027 16.4826 32.7322C16.4806 32.9159 16.5296 33.1333 16.6972 33.3115C16.8599 33.4845 17.074 33.5558 17.2702 33.5788L17.3867 32.5856ZM18.7627 30.9801C21.792 28.1577 26.6901 26.635 30.2858 29.4686L30.9048 28.6832C26.7415 25.4023 21.2729 27.2747 18.081 30.2485L18.7627 30.9801ZM30.2858 29.4686C36.0558 34.0156 36.5871 42.6039 34.0696 48.6918L34.9937 49.0739C37.6126 42.7407 37.1512 33.6057 30.9048 28.6832L30.2858 29.4686ZM34.0696 48.6918C32.796 51.7716 29.7631 53.9966 26.9235 56.1335C25.5289 57.183 24.1771 58.2171 23.1923 59.3063C22.2041 60.3994 21.5255 61.6128 21.5903 63.0229L22.5892 62.9771C22.5418 61.9439 23.0282 60.979 23.9341 59.977C24.8435 58.9712 26.1149 57.9935 27.5248 56.9325C30.2939 54.8487 33.5941 52.4585 34.9937 49.0739L34.0696 48.6918Z" fill="#EF9FBC"/>
</svg>
