<svg width="34" height="60" viewBox="0 0 34 60" fill="none" xmlns="http://www.w3.org/2000/svg">
<path d="M6.8633 38.6088C12.6254 28.028 18.2473 17.3366 24.3763 6.96205C25.241 5.49827 26.3024 4.15944 27.1378 2.68765C29.1066 -0.780821 23.4755 9.80855 22.19 13.5879C21.2097 16.4702 20.1485 19.8844 21.1084 22.936C22.0315 25.8705 24.9283 27.2253 27.3795 28.6236C29.5212 29.8454 31.893 31.2068 31.9936 34.0912C32.2456 41.3152 25.0053 47.1817 19.7276 50.6791C15.508 53.4753 10.6282 55.9009 5.75867 57.3281C4.4523 57.711 3.27567 58.3973 2.6404 56.6679C1.72038 54.1632 2.00831 49.5184 2.19164 47.343C2.66221 41.759 3.58235 34.8103 8.24409 30.9404C12.6069 27.3186 19.874 28.2618 24.0771 31.6122C27.0639 33.9932 27.4688 37.7354 27.6211 41.2615C27.814 45.728 27.1601 49.1511 24.3302 52.6483C22.2474 55.2223 20.1643 56.7293 17.2192 58" stroke="#EF548C" stroke-width="3" stroke-linecap="round"/>
</svg>
