<svg width="99" height="57" viewBox="0 0 99 57" fill="none" xmlns="http://www.w3.org/2000/svg">
<rect x="2" y="2" width="94.8673" height="53" rx="7" stroke="#ED3A7B" stroke-width="4"/>
<path d="M17.7637 37.6079C18.0107 38.1019 18.6114 38.3021 19.1054 38.0551C19.5993 37.8081 19.7996 37.2074 19.5526 36.7135L17.7637 37.6079ZM21.3631 33.1827L20.6344 32.4979L21.3631 33.1827ZM33.5356 27.5739L33.3972 26.5835L33.5356 27.5739ZM58.0397 27.8523L58.0505 26.8524L58.0397 27.8523ZM72.3204 23.8744L72.951 24.6505L72.3204 23.8744ZM74.9032 15.6798C74.9032 18.6254 77.291 21.0132 80.2365 21.0132C83.182 21.0132 85.5699 18.6254 85.5699 15.6798C85.5699 12.7343 83.182 10.3465 80.2365 10.3465C77.291 10.3465 74.9032 12.7343 74.9032 15.6798ZM19.5526 36.7135C19.6208 36.8499 19.5967 36.9442 19.6018 36.9157C19.6071 36.8865 19.6302 36.8054 19.7019 36.6656C19.8455 36.3857 20.0984 36.0326 20.4199 35.6465C21.0739 34.8611 21.7891 34.1898 22.0919 33.8676L20.6344 32.4979C20.4557 32.6881 19.5802 33.5294 18.883 34.3667C18.5289 34.7919 18.1661 35.2777 17.9224 35.7529C17.8004 35.9907 17.687 36.2662 17.6339 36.5588C17.5807 36.852 17.5764 37.2333 17.7637 37.6079L19.5526 36.7135ZM22.0919 33.8676C25.2623 30.4939 28.9545 29.2239 33.6741 28.5642L33.3972 26.5835C28.4458 27.2756 24.2412 28.6599 20.6344 32.4979L22.0919 33.8676ZM33.6741 28.5642C37.8147 27.9854 41.7753 28.0289 45.773 28.2339C49.7402 28.4372 53.8203 28.8065 58.0288 28.8523L58.0505 26.8524C53.8902 26.8071 49.9514 26.4454 45.8754 26.2365C41.8299 26.0291 37.7229 25.9788 33.3972 26.5835L33.6741 28.5642ZM58.0288 28.8523C61.0254 28.8848 63.499 28.884 65.8424 28.3441C68.2257 27.795 70.4238 26.7039 72.951 24.6505L71.6898 23.0983C69.3541 24.9961 67.427 25.9266 65.3934 26.3951C63.3198 26.8728 61.0845 26.8853 58.0505 26.8524L58.0288 28.8523ZM72.951 24.6505C75.9579 22.2074 78.8603 19.547 81.0686 16.2345L79.4045 15.1251C77.3644 18.1852 74.6481 20.6947 71.6898 23.0983L72.951 24.6505Z" fill="#ED3A7B"/>
</svg>
